<svg width="24" height="24" viewBox="0 0 24 24" fill="none" xmlns="http://www.w3.org/2000/svg">
<path d="M2.40116 13.2161L3.25065 8.00365C3.27359 7.86292 3.38662 7.7542 3.52814 7.73675L17.1697 6.05501C17.3875 6.02817 17.5673 6.22282 17.5234 6.43776L14.6941 20.2885C14.6636 20.4379 14.5322 20.5452 14.3797 20.5452L8.51008 20.5452C8.41479 20.5452 8.32443 20.5029 8.26345 20.4296L2.47128 13.4731C2.41179 13.4017 2.3862 13.3079 2.40116 13.2161Z" fill="url(#paint0_linear_943_2172)"/>
<path d="M3.2345 14.3192L3.69831 12.0013C3.72606 11.8627 3.8413 11.7585 3.98206 11.7449L11.6121 11.0058C11.8241 10.9853 11.9969 11.1731 11.9588 11.3826L10.479 19.5263C10.4513 19.6789 10.3184 19.7898 10.1633 19.7898L6.60116 19.7898C6.48843 19.7898 6.38397 19.7306 6.32597 19.6339L3.274 14.5473C3.23292 14.4789 3.21884 14.3975 3.2345 14.3192Z" fill="#030304"/>
<defs>
<linearGradient id="paint0_linear_943_2172" x1="-8.31129" y1="-24.4719" x2="15.9928" y2="19.4203" gradientUnits="userSpaceOnUse">
<stop stop-color="#B5CBED"/>
<stop offset="1" stop-color="#AD3D00"/>
</linearGradient>
</defs>
</svg>
