<svg width="246" height="107" viewBox="0 0 246 107" fill="none" xmlns="http://www.w3.org/2000/svg">
<rect x="17" width="2" height="89" fill="#D9D9D9"/>
<rect x="21" width="2" height="89" fill="#D9D9D9"/>
<rect x="37" width="2" height="89" fill="#D9D9D9"/>
<rect x="222" width="2" height="89" fill="#D9D9D9"/>
<rect x="225" width="2" height="89" fill="#D9D9D9"/>
<rect x="205" width="2" height="89" fill="#D9D9D9"/>
<rect x="53" width="2" height="80" fill="#D9D9D9"/>
<rect x="59" width="2" height="80" fill="#D9D9D9"/>
<rect x="84" width="2" height="80" fill="#D9D9D9"/>
<rect x="87" width="2" height="80" fill="#D9D9D9"/>
<rect x="114" width="2" height="80" fill="#D9D9D9"/>
<rect x="129" width="2" height="80" fill="#D9D9D9"/>
<rect x="132" width="2" height="80" fill="#D9D9D9"/>
<rect x="144" width="2" height="80" fill="#D9D9D9"/>
<rect x="152" width="2" height="80" fill="#D9D9D9"/>
<rect x="159" width="2" height="80" fill="#D9D9D9"/>
<rect x="165" width="2" height="80" fill="#D9D9D9"/>
<rect x="184" width="2" height="80" fill="#D9D9D9"/>
<rect x="202" width="2" height="80" fill="#D9D9D9"/>
<rect x="119" width="2" height="89" fill="#D9D9D9"/>
<rect x="124" width="2" height="89" fill="#D9D9D9"/>
<rect x="29" width="5" height="89" fill="#D9D9D9"/>
<rect x="214" width="5" height="89" fill="#D9D9D9"/>
<rect x="43" width="4" height="80" fill="#D9D9D9"/>
<rect x="66" width="4" height="80" fill="#D9D9D9"/>
<rect x="174" width="7" height="80" fill="#D9D9D9"/>
<rect x="190" width="7" height="80" fill="#D9D9D9"/>
<rect x="96" width="4" height="80" fill="#D9D9D9"/>
<rect x="103" width="4" height="80" fill="#D9D9D9"/>
<rect x="73" width="8" height="80" fill="#D9D9D9"/>
<path d="M6.06195 102.27C5.25195 102.27 4.51395 102.075 3.84795 101.685C3.18795 101.289 2.65995 100.755 2.26395 100.083C1.87395 99.405 1.67895 98.643 1.67895 97.797V93.306C1.67895 92.436 1.87395 91.662 2.26395 90.984C2.65395 90.3 3.18495 89.763 3.85695 89.373C4.53495 88.977 5.30295 88.779 6.16095 88.779C6.89895 88.779 7.58295 88.941 8.21295 89.265C8.84895 89.589 9.36795 90.042 9.76995 90.624L8.75295 91.461C8.47695 91.029 8.11095 90.684 7.65495 90.426C7.19895 90.168 6.70095 90.039 6.16095 90.039C5.55495 90.039 5.01495 90.186 4.54095 90.48C4.06695 90.774 3.69495 91.161 3.42495 91.641C3.15495 92.115 3.01995 92.631 3.01995 93.189V96.015L2.68695 95.637C3.06495 95.043 3.55995 94.563 4.17195 94.197C4.78995 93.831 5.46195 93.648 6.18795 93.648C6.99195 93.648 7.71495 93.84 8.35695 94.224C8.99895 94.602 9.50895 95.115 9.88695 95.763C10.2649 96.411 10.4539 97.137 10.4539 97.941C10.4539 98.739 10.2529 99.465 9.85095 100.119C9.45495 100.773 8.92395 101.295 8.25795 101.685C7.59795 102.075 6.86595 102.27 6.06195 102.27ZM6.06195 100.983C6.62595 100.983 7.13895 100.848 7.60095 100.578C8.06895 100.308 8.43795 99.942 8.70795 99.48C8.98395 99.018 9.12195 98.505 9.12195 97.941C9.12195 97.377 8.98395 96.864 8.70795 96.402C8.43795 95.934 8.07195 95.565 7.60995 95.295C7.14795 95.019 6.63495 94.881 6.07095 94.881C5.50695 94.881 4.99395 95.019 4.53195 95.295C4.06995 95.565 3.70095 95.934 3.42495 96.402C3.15495 96.864 3.01995 97.377 3.01995 97.941C3.01995 98.499 3.15495 99.009 3.42495 99.471C3.69495 99.933 4.06095 100.302 4.52295 100.578C4.98495 100.848 5.49795 100.983 6.06195 100.983Z" fill="#D9D9D9"/>
<path d="M239.945 88.779C240.761 88.779 241.499 88.977 242.159 89.373C242.825 89.763 243.353 90.297 243.743 90.975C244.133 91.647 244.328 92.403 244.328 93.243V97.743C244.328 98.607 244.133 99.381 243.743 100.065C243.353 100.749 242.819 101.289 242.141 101.685C241.469 102.075 240.704 102.27 239.846 102.27C239.108 102.27 238.424 102.108 237.794 101.784C237.17 101.454 236.654 101.001 236.246 100.425L237.254 99.588C237.53 100.014 237.896 100.356 238.352 100.614C238.814 100.872 239.312 101.001 239.846 101.001C240.458 101.001 240.998 100.857 241.466 100.569C241.94 100.275 242.312 99.891 242.582 99.417C242.858 98.937 242.996 98.418 242.996 97.86V95.034L243.32 95.412C242.948 96.006 242.453 96.486 241.835 96.852C241.223 97.218 240.551 97.401 239.819 97.401C239.021 97.401 238.298 97.209 237.65 96.825C237.008 96.441 236.498 95.925 236.12 95.277C235.748 94.629 235.562 93.906 235.562 93.108C235.562 92.31 235.76 91.584 236.156 90.93C236.552 90.27 237.083 89.748 237.749 89.364C238.415 88.974 239.147 88.779 239.945 88.779ZM239.945 90.057C239.381 90.057 238.868 90.195 238.406 90.471C237.944 90.741 237.575 91.107 237.299 91.569C237.029 92.031 236.894 92.544 236.894 93.108C236.894 93.672 237.029 94.185 237.299 94.647C237.569 95.109 237.935 95.478 238.397 95.754C238.859 96.024 239.372 96.159 239.936 96.159C240.5 96.159 241.013 96.024 241.475 95.754C241.943 95.478 242.312 95.109 242.582 94.647C242.858 94.185 242.996 93.672 242.996 93.108C242.996 92.55 242.858 92.04 242.582 91.578C242.312 91.116 241.946 90.747 241.484 90.471C241.022 90.195 240.509 90.057 239.945 90.057Z" fill="#D9D9D9"/>
<path d="M53.5242 102.27C52.7262 102.27 52.0062 102.084 51.3642 101.712C50.7282 101.34 50.2242 100.836 49.8522 100.2C49.4802 99.558 49.2942 98.838 49.2942 98.04V93C49.2942 92.202 49.4802 91.485 49.8522 90.849C50.2242 90.207 50.7282 89.7 51.3642 89.328C52.0062 88.956 52.7262 88.77 53.5242 88.77C54.3222 88.77 55.0392 88.956 55.6752 89.328C56.3172 89.7 56.8242 90.207 57.1962 90.849C57.5682 91.485 57.7542 92.202 57.7542 93V98.04C57.7542 98.838 57.5682 99.558 57.1962 100.2C56.8242 100.836 56.3172 101.34 55.6752 101.712C55.0392 102.084 54.3222 102.27 53.5242 102.27ZM53.5242 100.992C54.0582 100.992 54.5442 100.863 54.9822 100.605C55.4202 100.341 55.7682 99.99 56.0262 99.552C56.2842 99.114 56.4132 98.631 56.4132 98.103V92.937C56.4132 92.403 56.2842 91.917 56.0262 91.479C55.7682 91.041 55.4202 90.693 54.9822 90.435C54.5442 90.171 54.0582 90.039 53.5242 90.039C52.9902 90.039 52.5042 90.171 52.0662 90.435C51.6282 90.693 51.2802 91.041 51.0222 91.479C50.7642 91.917 50.6352 92.403 50.6352 92.937V98.103C50.6352 98.631 50.7642 99.114 51.0222 99.552C51.2802 99.99 51.6282 100.341 52.0662 100.605C52.5042 100.863 52.9902 100.992 53.5242 100.992ZM64.5105 102.27C63.7125 102.27 62.9925 102.084 62.3505 101.712C61.7145 101.34 61.2105 100.836 60.8385 100.2C60.4665 99.558 60.2805 98.838 60.2805 98.04V93C60.2805 92.202 60.4665 91.485 60.8385 90.849C61.2105 90.207 61.7145 89.7 62.3505 89.328C62.9925 88.956 63.7125 88.77 64.5105 88.77C65.3085 88.77 66.0255 88.956 66.6615 89.328C67.3035 89.7 67.8105 90.207 68.1825 90.849C68.5545 91.485 68.7405 92.202 68.7405 93V98.04C68.7405 98.838 68.5545 99.558 68.1825 100.2C67.8105 100.836 67.3035 101.34 66.6615 101.712C66.0255 102.084 65.3085 102.27 64.5105 102.27ZM64.5105 100.992C65.0445 100.992 65.5305 100.863 65.9685 100.605C66.4065 100.341 66.7545 99.99 67.0125 99.552C67.2705 99.114 67.3995 98.631 67.3995 98.103V92.937C67.3995 92.403 67.2705 91.917 67.0125 91.479C66.7545 91.041 66.4065 90.693 65.9685 90.435C65.5305 90.171 65.0445 90.039 64.5105 90.039C63.9765 90.039 63.4905 90.171 63.0525 90.435C62.6145 90.693 62.2665 91.041 62.0085 91.479C61.7505 91.917 61.6215 92.403 61.6215 92.937V98.103C61.6215 98.631 61.7505 99.114 62.0085 99.552C62.2665 99.99 62.6145 100.341 63.0525 100.605C63.4905 100.863 63.9765 100.992 64.5105 100.992ZM75.4968 102.27C74.6988 102.27 73.9788 102.084 73.3368 101.712C72.7008 101.34 72.1968 100.836 71.8248 100.2C71.4528 99.558 71.2668 98.838 71.2668 98.04V93C71.2668 92.202 71.4528 91.485 71.8248 90.849C72.1968 90.207 72.7008 89.7 73.3368 89.328C73.9788 88.956 74.6988 88.77 75.4968 88.77C76.2948 88.77 77.0118 88.956 77.6478 89.328C78.2898 89.7 78.7968 90.207 79.1688 90.849C79.5408 91.485 79.7268 92.202 79.7268 93V98.04C79.7268 98.838 79.5408 99.558 79.1688 100.2C78.7968 100.836 78.2898 101.34 77.6478 101.712C77.0118 102.084 76.2948 102.27 75.4968 102.27ZM75.4968 100.992C76.0308 100.992 76.5168 100.863 76.9548 100.605C77.3928 100.341 77.7408 99.99 77.9988 99.552C78.2568 99.114 78.3858 98.631 78.3858 98.103V92.937C78.3858 92.403 78.2568 91.917 77.9988 91.479C77.7408 91.041 77.3928 90.693 76.9548 90.435C76.5168 90.171 76.0308 90.039 75.4968 90.039C74.9628 90.039 74.4768 90.171 74.0388 90.435C73.6008 90.693 73.2528 91.041 72.9948 91.479C72.7368 91.917 72.6078 92.403 72.6078 92.937V98.103C72.6078 98.631 72.7368 99.114 72.9948 99.552C73.2528 99.99 73.6008 100.341 74.0388 100.605C74.4768 100.863 74.9628 100.992 75.4968 100.992ZM86.4832 102.27C85.6852 102.27 84.9652 102.084 84.3232 101.712C83.6872 101.34 83.1832 100.836 82.8112 100.2C82.4392 99.558 82.2532 98.838 82.2532 98.04V93C82.2532 92.202 82.4392 91.485 82.8112 90.849C83.1832 90.207 83.6872 89.7 84.3232 89.328C84.9652 88.956 85.6852 88.77 86.4832 88.77C87.2812 88.77 87.9982 88.956 88.6342 89.328C89.2762 89.7 89.7832 90.207 90.1552 90.849C90.5272 91.485 90.7132 92.202 90.7132 93V98.04C90.7132 98.838 90.5272 99.558 90.1552 100.2C89.7832 100.836 89.2762 101.34 88.6342 101.712C87.9982 102.084 87.2812 102.27 86.4832 102.27ZM86.4832 100.992C87.0172 100.992 87.5032 100.863 87.9412 100.605C88.3792 100.341 88.7272 99.99 88.9852 99.552C89.2432 99.114 89.3722 98.631 89.3722 98.103V92.937C89.3722 92.403 89.2432 91.917 88.9852 91.479C88.7272 91.041 88.3792 90.693 87.9412 90.435C87.5032 90.171 87.0172 90.039 86.4832 90.039C85.9492 90.039 85.4632 90.171 85.0252 90.435C84.5872 90.693 84.2392 91.041 83.9812 91.479C83.7232 91.917 83.5942 92.403 83.5942 92.937V98.103C83.5942 98.631 83.7232 99.114 83.9812 99.552C84.2392 99.99 84.5872 100.341 85.0252 100.605C85.4632 100.863 85.9492 100.992 86.4832 100.992ZM97.4695 102.27C96.6715 102.27 95.9515 102.084 95.3095 101.712C94.6735 101.34 94.1695 100.836 93.7975 100.2C93.4255 99.558 93.2395 98.838 93.2395 98.04V93C93.2395 92.202 93.4255 91.485 93.7975 90.849C94.1695 90.207 94.6735 89.7 95.3095 89.328C95.9515 88.956 96.6715 88.77 97.4695 88.77C98.2675 88.77 98.9845 88.956 99.6205 89.328C100.262 89.7 100.769 90.207 101.141 90.849C101.513 91.485 101.699 92.202 101.699 93V98.04C101.699 98.838 101.513 99.558 101.141 100.2C100.769 100.836 100.262 101.34 99.6205 101.712C98.9845 102.084 98.2675 102.27 97.4695 102.27ZM97.4695 100.992C98.0035 100.992 98.4895 100.863 98.9275 100.605C99.3655 100.341 99.7135 99.99 99.9715 99.552C100.229 99.114 100.358 98.631 100.358 98.103V92.937C100.358 92.403 100.229 91.917 99.9715 91.479C99.7135 91.041 99.3655 90.693 98.9275 90.435C98.4895 90.171 98.0035 90.039 97.4695 90.039C96.9355 90.039 96.4495 90.171 96.0115 90.435C95.5735 90.693 95.2255 91.041 94.9675 91.479C94.7095 91.917 94.5805 92.403 94.5805 92.937V98.103C94.5805 98.631 94.7095 99.114 94.9675 99.552C95.2255 99.99 95.5735 100.341 96.0115 100.605C96.4495 100.863 96.9355 100.992 97.4695 100.992Z" fill="#D9D9D9"/>
<path d="M144.524 102.27C143.726 102.27 143.006 102.084 142.364 101.712C141.728 101.34 141.224 100.836 140.852 100.2C140.48 99.558 140.294 98.838 140.294 98.04V93C140.294 92.202 140.48 91.485 140.852 90.849C141.224 90.207 141.728 89.7 142.364 89.328C143.006 88.956 143.726 88.77 144.524 88.77C145.322 88.77 146.039 88.956 146.675 89.328C147.317 89.7 147.824 90.207 148.196 90.849C148.568 91.485 148.754 92.202 148.754 93V98.04C148.754 98.838 148.568 99.558 148.196 100.2C147.824 100.836 147.317 101.34 146.675 101.712C146.039 102.084 145.322 102.27 144.524 102.27ZM144.524 100.992C145.058 100.992 145.544 100.863 145.982 100.605C146.42 100.341 146.768 99.99 147.026 99.552C147.284 99.114 147.413 98.631 147.413 98.103V92.937C147.413 92.403 147.284 91.917 147.026 91.479C146.768 91.041 146.42 90.693 145.982 90.435C145.544 90.171 145.058 90.039 144.524 90.039C143.99 90.039 143.504 90.171 143.066 90.435C142.628 90.693 142.28 91.041 142.022 91.479C141.764 91.917 141.635 92.403 141.635 92.937V98.103C141.635 98.631 141.764 99.114 142.022 99.552C142.28 99.99 142.628 100.341 143.066 100.605C143.504 100.863 143.99 100.992 144.524 100.992ZM155.511 102.27C154.713 102.27 153.993 102.084 153.351 101.712C152.715 101.34 152.211 100.836 151.839 100.2C151.467 99.558 151.281 98.838 151.281 98.04V93C151.281 92.202 151.467 91.485 151.839 90.849C152.211 90.207 152.715 89.7 153.351 89.328C153.993 88.956 154.713 88.77 155.511 88.77C156.309 88.77 157.026 88.956 157.662 89.328C158.304 89.7 158.811 90.207 159.183 90.849C159.555 91.485 159.741 92.202 159.741 93V98.04C159.741 98.838 159.555 99.558 159.183 100.2C158.811 100.836 158.304 101.34 157.662 101.712C157.026 102.084 156.309 102.27 155.511 102.27ZM155.511 100.992C156.045 100.992 156.531 100.863 156.969 100.605C157.407 100.341 157.755 99.99 158.013 99.552C158.271 99.114 158.4 98.631 158.4 98.103V92.937C158.4 92.403 158.271 91.917 158.013 91.479C157.755 91.041 157.407 90.693 156.969 90.435C156.531 90.171 156.045 90.039 155.511 90.039C154.977 90.039 154.491 90.171 154.053 90.435C153.615 90.693 153.267 91.041 153.009 91.479C152.751 91.917 152.622 92.403 152.622 92.937V98.103C152.622 98.631 152.751 99.114 153.009 99.552C153.267 99.99 153.615 100.341 154.053 100.605C154.491 100.863 154.977 100.992 155.511 100.992ZM166.497 102.27C165.699 102.27 164.979 102.084 164.337 101.712C163.701 101.34 163.197 100.836 162.825 100.2C162.453 99.558 162.267 98.838 162.267 98.04V93C162.267 92.202 162.453 91.485 162.825 90.849C163.197 90.207 163.701 89.7 164.337 89.328C164.979 88.956 165.699 88.77 166.497 88.77C167.295 88.77 168.012 88.956 168.648 89.328C169.29 89.7 169.797 90.207 170.169 90.849C170.541 91.485 170.727 92.202 170.727 93V98.04C170.727 98.838 170.541 99.558 170.169 100.2C169.797 100.836 169.29 101.34 168.648 101.712C168.012 102.084 167.295 102.27 166.497 102.27ZM166.497 100.992C167.031 100.992 167.517 100.863 167.955 100.605C168.393 100.341 168.741 99.99 168.999 99.552C169.257 99.114 169.386 98.631 169.386 98.103V92.937C169.386 92.403 169.257 91.917 168.999 91.479C168.741 91.041 168.393 90.693 167.955 90.435C167.517 90.171 167.031 90.039 166.497 90.039C165.963 90.039 165.477 90.171 165.039 90.435C164.601 90.693 164.253 91.041 163.995 91.479C163.737 91.917 163.608 92.403 163.608 92.937V98.103C163.608 98.631 163.737 99.114 163.995 99.552C164.253 99.99 164.601 100.341 165.039 100.605C165.477 100.863 165.963 100.992 166.497 100.992ZM177.483 102.27C176.685 102.27 175.965 102.084 175.323 101.712C174.687 101.34 174.183 100.836 173.811 100.2C173.439 99.558 173.253 98.838 173.253 98.04V93C173.253 92.202 173.439 91.485 173.811 90.849C174.183 90.207 174.687 89.7 175.323 89.328C175.965 88.956 176.685 88.77 177.483 88.77C178.281 88.77 178.998 88.956 179.634 89.328C180.276 89.7 180.783 90.207 181.155 90.849C181.527 91.485 181.713 92.202 181.713 93V98.04C181.713 98.838 181.527 99.558 181.155 100.2C180.783 100.836 180.276 101.34 179.634 101.712C178.998 102.084 178.281 102.27 177.483 102.27ZM177.483 100.992C178.017 100.992 178.503 100.863 178.941 100.605C179.379 100.341 179.727 99.99 179.985 99.552C180.243 99.114 180.372 98.631 180.372 98.103V92.937C180.372 92.403 180.243 91.917 179.985 91.479C179.727 91.041 179.379 90.693 178.941 90.435C178.503 90.171 178.017 90.039 177.483 90.039C176.949 90.039 176.463 90.171 176.025 90.435C175.587 90.693 175.239 91.041 174.981 91.479C174.723 91.917 174.594 92.403 174.594 92.937V98.103C174.594 98.631 174.723 99.114 174.981 99.552C175.239 99.99 175.587 100.341 176.025 100.605C176.463 100.863 176.949 100.992 177.483 100.992ZM188.469 102.27C187.671 102.27 186.951 102.084 186.309 101.712C185.673 101.34 185.169 100.836 184.797 100.2C184.425 99.558 184.239 98.838 184.239 98.04V93C184.239 92.202 184.425 91.485 184.797 90.849C185.169 90.207 185.673 89.7 186.309 89.328C186.951 88.956 187.671 88.77 188.469 88.77C189.267 88.77 189.984 88.956 190.62 89.328C191.262 89.7 191.769 90.207 192.141 90.849C192.513 91.485 192.699 92.202 192.699 93V98.04C192.699 98.838 192.513 99.558 192.141 100.2C191.769 100.836 191.262 101.34 190.62 101.712C189.984 102.084 189.267 102.27 188.469 102.27ZM188.469 100.992C189.003 100.992 189.489 100.863 189.927 100.605C190.365 100.341 190.713 99.99 190.971 99.552C191.229 99.114 191.358 98.631 191.358 98.103V92.937C191.358 92.403 191.229 91.917 190.971 91.479C190.713 91.041 190.365 90.693 189.927 90.435C189.489 90.171 189.003 90.039 188.469 90.039C187.935 90.039 187.449 90.171 187.011 90.435C186.573 90.693 186.225 91.041 185.967 91.479C185.709 91.917 185.58 92.403 185.58 92.937V98.103C185.58 98.631 185.709 99.114 185.967 99.552C186.225 99.99 186.573 100.341 187.011 100.605C187.449 100.863 187.935 100.992 188.469 100.992Z" fill="#D9D9D9"/>
</svg>
