<svg width="1842" height="222" viewBox="0 0 1842 222" fill="none" xmlns="http://www.w3.org/2000/svg">
<path d="M1573.64 221.637V62.895H1627.31L1642.61 77.8707L1657.6 62.895H1768.54L1842 98.8365V221.637H1767.04V110.817L1749.05 101.832H1648.6V221.637H1573.64Z" fill="#898585"/>
<path d="M1286.87 221.637V62.895H1558.22V221.637H1286.87ZM1361.83 182.7H1483.26V101.832H1361.83V182.7Z" fill="#898585"/>
<path d="M1159.04 101.834V62.8976H1271.48V221.639H1196.52V101.834H1159.04ZM1196.52 41.9318V0H1271.48V41.9318H1196.52Z" fill="#898585"/>
<path d="M936.375 101.833V62.8962H973.855V11.979H1048.82V62.8962H1122.28V101.833H1048.82V173.716L1066.81 182.701H1182.24V221.638H1047.32L973.855 185.696V101.833H936.375Z" fill="#898585"/>
<path d="M655.597 221.637V161.734L730.557 169.222V182.7H845.996V169.222L655.597 142.266V62.895H920.956V122.798L845.996 115.31V101.832H730.557V113.812L920.956 140.768V221.637H655.597Z" fill="#898585"/>
<path d="M371.747 221.637V142.266L565.144 118.305V101.832H446.707V115.31L371.747 122.798V62.895H640.104V221.637H586.433L571.141 206.661L556.149 221.637H371.747ZM446.707 182.7H565.144V154.546L446.707 169.222V182.7Z" fill="#898585"/>
<path d="M0 54.5098V11.979H356.211V94.345L287.547 116.808L356.211 139.272V221.638H44.6763V54.5098H0ZM122.935 179.107H277.952V163.832L218.884 138.074H122.935V179.107ZM122.935 95.543H218.884L277.952 69.785V54.5098H122.935V95.543Z" fill="#898585"/>
</svg>
