<svg width="45" height="45" viewBox="0 0 45 45" fill="none" xmlns="http://www.w3.org/2000/svg">
<path d="M4.48904 24.7084L6.07721 14.9633C6.12009 14.7002 6.33141 14.497 6.59598 14.4644L32.0998 11.3202C32.5069 11.27 32.8432 11.634 32.7611 12.0358L27.4715 37.9307C27.4145 38.21 27.1687 38.4106 26.8836 38.4106L15.9101 38.4106C15.7319 38.4106 15.563 38.3314 15.449 38.1945L4.62013 25.1889C4.5089 25.0553 4.46107 24.88 4.48904 24.7084Z" fill="url(#paint0_linear_1435_1196)"/>
<path d="M6.04714 26.7711L6.91425 22.4377C6.96613 22.1784 7.18159 21.9837 7.44475 21.9582L21.7097 20.5765C22.1059 20.5381 22.429 20.8893 22.3578 21.281L19.5913 36.506C19.5394 36.7914 19.2909 36.9988 19.0009 36.9988L12.3413 36.9986C12.1306 36.9986 11.9353 36.8881 11.8268 36.7073L6.12098 27.1976C6.04417 27.0696 6.01785 26.9175 6.04714 26.7711Z" fill="#030304"/>
<defs>
<linearGradient id="paint0_linear_1435_1196" x1="-15.5386" y1="-45.7519" x2="29.8994" y2="36.3075" gradientUnits="userSpaceOnUse">
<stop stop-color="#B5CBED"/>
<stop offset="1" stop-color="#AD3D00"/>
</linearGradient>
</defs>
</svg>
